<svg width="627" height="416" viewBox="0 0 627 416" fill="none" xmlns="http://www.w3.org/2000/svg">
<!-- <path opacity="0.95" d="M309 295.848C385.492 295.848 447.5 229.807 447.5 148.342C447.5 66.8773 385.492 0.836914 309 0.836914C232.509 0.836914 170.5 66.8773 170.5 148.342C170.5 229.807 232.509 295.848 309 295.848Z" fill="#7F9E99"/> -->
<!-- <path d="M385.5 145.147C385.5 223.862 336.1 289.457 274.35 289.457C238.321 289.457 203.767 274.253 178.29 247.19C152.813 220.127 138.5 183.421 138.5 145.147C138.5 106.874 152.813 70.1678 178.29 43.1044C203.767 16.041 238.321 0.836914 274.35 0.836914C336.1 0.836914 385.5 66.4325 385.5 145.147Z" fill="#587974"/> -->
<path
  d="
    M309 20
    C378 20 433 85 433 150
    C433 215 378 280 309 280
    C345 255 365 205 365 150
    C365 95 345 45 309 20
    Z
  "
  fill="#587974"
/>


<path d="M2.50024 378.92C71.6114 333.479 140.722 333.479 209.834 378.92C278.945 424.36 348.056 424.36 417.167 378.92C486.278 333.479 555.389 333.479 624.5 378.92" stroke="#7F9E99" stroke-width="5" stroke-linecap="round"/>
<path d="M158.786 85.2026C167.579 85.2026 174.708 77.6211 174.708 68.2688C174.708 58.9165 167.579 51.335 158.786 51.335C149.993 51.335 142.865 58.9165 142.865 68.2688C142.865 77.6211 149.993 85.2026 158.786 85.2026Z" fill="#7F9E99"/>
<path d="M500.75 251.718C508.078 251.718 514.018 245.4 514.018 237.607C514.018 229.813 508.078 223.495 500.75 223.495C493.422 223.495 487.482 229.813 487.482 237.607C487.482 245.4 493.422 251.718 500.75 251.718Z" fill="#7F9E99"/>
<path d="M457.679 22.5784C463.541 22.5784 468.293 17.5241 468.293 11.2892C468.293 5.05435 463.541 0 457.679 0C451.817 0 447.065 5.05435 447.065 11.2892C447.065 17.5241 451.817 22.5784 457.679 22.5784Z" fill="#7F9E99"/>
</svg>
